<svg width="64" height="70" viewBox="0 0 64 70" fill="none" xmlns="http://www.w3.org/2000/svg">
<path d="M41.687 34.9061H10.6875M10.6875 34.9061L17.5763 41.6873M10.6875 34.9061L17.5763 28.125" stroke="#1C274C" stroke-linecap="round" stroke-linejoin="round"/>
<path d="M32.1447 68.7584C26.8189 68.5997 23.6424 68.0121 21.4439 65.8375C18.8097 63.232 18.479 59.2379 18.4375 51.8628M45.8578 68.8113C53.3143 68.7703 57.3525 68.4431 59.9868 65.8375C62.9992 62.858 62.9992 58.0626 62.9992 48.4719V41.6902V28.1268V21.3451C62.9992 11.7543 62.9992 6.95895 59.9868 3.97947C56.9744 1 52.1261 1 42.4296 1H39.0013C29.3044 1 24.4562 1 21.4439 3.97947C18.8097 6.58494 18.479 10.5791 18.4375 17.9543" stroke="#1C274C" stroke-linecap="round"/>
<path d="M1 26.1872V43.6244C1 51.8443 1 55.9542 3.55361 58.5081C6.10725 61.0616 10.2172 61.0616 18.4372 61.0616M3.55361 11.3036C6.10725 8.75 10.2172 8.75 18.4372 8.75" stroke="#1C274C" stroke-linecap="round"/>
</svg>
