<svg width="63" height="63" viewBox="0 0 63 63" fill="none" xmlns="http://www.w3.org/2000/svg">
<path d="M18.9409 26.1173L28.8396 2.97979C29.5961 1.21158 31.6676 0.480687 33.3293 1.39573L51.2346 11.2558" stroke="#1C274C" stroke-linecap="round" stroke-linejoin="round"/>
<path d="M36.8818 42.3271V11.7656H61.9992V58.4121H36.8818V51.9781" stroke="#1C274C" stroke-linecap="round" stroke-linejoin="round"/>
<path d="M1 61.9977C16.0704 61.9977 17.3582 53.193 21.6468 52.5787C26.7079 51.8539 31.8637 51.4811 36.3372 50.4051C42.0199 49.0384 46.6022 47.2786 48.4923 46.5047C49.1065 46.2531 49.6176 45.8153 49.9249 45.2322C50.8681 43.4413 52.558 39.4917 49.4277 38.9937C45.3622 38.3468 32.7828 43.0907 26.331 42.2282C19.8792 41.3657 22.1476 37.0529 24.1804 35.7592C29.7009 32.2453 36.1642 33.8442 36.1642 33.8442V18.9395C36.1642 18.9395 11.6054 25.1498 2.67449 35.7592" stroke="#1C274C" stroke-linecap="round" stroke-linejoin="round"/>
<path d="M47.647 26.1211H61.9997" stroke="#1C274C" stroke-linecap="round" stroke-linejoin="round"/>
</svg>
