<svg width="27" height="27" viewBox="0 0 27 27" fill="none" xmlns="http://www.w3.org/2000/svg">
<path d="M13.5 0C6.04462 0 0 6.04462 0 13.5C0 20.9554 6.04462 27 13.5 27C20.9554 27 27 20.9554 27 13.5C27 6.04462 20.9554 0 13.5 0ZM13.5 25.3125C6.9873 25.3125 1.6875 20.0127 1.6875 13.5C1.6875 6.9873 6.9873 1.6875 13.5 1.6875C20.0127 1.6875 25.3125 6.9873 25.3125 13.5C25.3125 20.0127 20.0127 25.3125 13.5 25.3125Z" fill="#B0BEC5"/>
<path d="M15.8875 13.5011L19.4669 9.92174C20.126 9.26256 20.126 8.1931 19.4669 7.5354C18.8094 6.87622 17.7397 6.87622 17.0805 7.5354L13.5011 11.115L9.92174 7.53561C9.26256 6.87643 8.1931 6.87643 7.5354 7.53561C6.87622 8.1931 6.87622 9.26277 7.5354 9.92195L11.115 13.5011L7.53561 17.0805C6.87643 17.7397 6.87643 18.8092 7.53561 19.4669C8.1931 20.126 9.26277 20.126 9.92195 19.4669L13.5011 15.8875L17.0805 19.4669C17.7397 20.126 18.8092 20.126 19.4669 19.4669C20.126 18.8094 20.126 17.7397 19.4669 17.0805L15.8875 13.5011Z" fill="#B0BEC5"/>
</svg>
