<svg width="20" height="24" viewBox="0 0 20 24" fill="none" xmlns="http://www.w3.org/2000/svg">
<path d="M10.8745 23.0775H2.09349C1.53506 23.074 1.00086 22.849 0.608303 22.4518C0.215748 22.0546 -0.00303779 21.5178 3.18705e-05 20.9593V2.11819C-0.00216339 1.55973 0.217131 1.02318 0.609855 0.626131C1.00258 0.229082 1.53669 0.00392237 2.09514 0H17.8999C18.459 0.00435647 18.9934 0.230387 19.3859 0.62846C19.7784 1.02653 19.9969 1.5641 19.9934 2.12313V12.574C19.9982 12.6777 19.9819 12.7814 19.9455 12.8787C19.9092 12.9759 19.8534 13.0648 19.7817 13.14C19.71 13.2151 19.6237 13.2749 19.5282 13.3158C19.4327 13.3566 19.3299 13.3777 19.2261 13.3777C19.1222 13.3777 19.0194 13.3566 18.9239 13.3158C18.8284 13.2749 18.7422 13.2151 18.6705 13.14C18.5988 13.0648 18.543 12.9759 18.5066 12.8787C18.4702 12.7814 18.4539 12.6777 18.4588 12.574V2.12643C18.4614 1.97484 18.4039 1.82837 18.2989 1.71903C18.1939 1.60968 18.0499 1.54636 17.8983 1.5429H2.09679C2.02196 1.54418 1.94813 1.56023 1.87951 1.5901C1.8109 1.61998 1.74885 1.66311 1.69694 1.71702C1.64503 1.77092 1.60426 1.83454 1.57698 1.90423C1.54971 1.97392 1.53645 2.04831 1.53798 2.12313V20.9643C1.53557 21.0387 1.548 21.1129 1.57457 21.1824C1.60114 21.252 1.6413 21.3156 1.69271 21.3694C1.74412 21.4233 1.80575 21.4664 1.874 21.4961C1.94224 21.5259 2.01574 21.5418 2.0902 21.5429H10.8745C11.0719 21.5518 11.2582 21.6364 11.3948 21.7792C11.5314 21.9219 11.6077 22.1118 11.6079 22.3094C11.6081 22.507 11.5322 22.697 11.3959 22.8401C11.2596 22.9831 11.0735 23.0682 10.8761 23.0775H10.8745ZM15.9318 7.5991H4.06497C3.86103 7.5991 3.66544 7.51808 3.52122 7.37387C3.37701 7.22966 3.296 7.03407 3.296 6.83012C3.296 6.62618 3.37701 6.43058 3.52122 6.28637C3.66544 6.14216 3.86103 6.06115 4.06497 6.06115H15.9334C16.1374 6.06115 16.3329 6.14216 16.4772 6.28637C16.6214 6.43058 16.7024 6.62618 16.7024 6.83012C16.7024 7.03407 16.6214 7.22966 16.4772 7.37387C16.3329 7.51808 16.1374 7.5991 15.9334 7.5991H15.9318ZM10.6569 11.6377H4.06497C3.86103 11.6377 3.66544 11.5566 3.52122 11.4124C3.37701 11.2682 3.296 11.0726 3.296 10.8687C3.296 10.6647 3.37701 10.4692 3.52122 10.3249C3.66544 10.1807 3.86103 10.0997 4.06497 10.0997H10.6569C10.7578 10.0997 10.8577 10.1196 10.9509 10.1582C11.0441 10.1968 11.1287 10.2534 11.2001 10.3247C11.2714 10.396 11.328 10.4807 11.3666 10.5739C11.4052 10.6671 11.4251 10.767 11.4251 10.8679C11.4251 10.9687 11.4052 11.0686 11.3666 11.1618C11.328 11.255 11.2714 11.3397 11.2001 11.411C11.1287 11.4824 11.0441 11.5389 10.9509 11.5775C10.8577 11.6161 10.7578 11.636 10.6569 11.636V11.6377ZM15.2724 21.7324C12.6679 21.7324 10.5481 19.573 10.5481 16.9257C10.5481 16.7218 10.6291 16.5262 10.7733 16.382C10.9175 16.2378 11.1131 16.1567 11.3171 16.1567C11.521 16.1567 11.7166 16.2378 11.8608 16.382C12.005 16.5262 12.0861 16.7218 12.0861 16.9257C12.0861 18.7291 13.5169 20.1961 15.2691 20.1961C15.7175 20.1961 16.151 20.1005 16.5582 19.9159C16.742 19.842 16.9472 19.8417 17.1312 19.9153C17.3152 19.9889 17.4637 20.1305 17.5459 20.3108C17.6281 20.4911 17.6376 20.6961 17.5724 20.8832C17.5073 21.0703 17.3725 21.2251 17.1961 21.3154C16.5895 21.5907 15.9433 21.7324 15.2724 21.7324ZM19.2286 17.6939C19.0248 17.6939 18.8294 17.6129 18.6854 17.4689C18.5413 17.3248 18.4604 17.1294 18.4604 16.9257C18.4604 15.1224 17.0296 13.6553 15.2757 13.6553C14.8554 13.6553 14.4416 13.7377 14.0559 13.9026C13.8706 13.9707 13.6662 13.9651 13.485 13.8869C13.3037 13.8086 13.1595 13.6637 13.082 13.4821C13.0046 13.3006 12.9998 13.0962 13.0688 12.9112C13.1378 12.7262 13.2751 12.5748 13.4526 12.4882C14.0291 12.2434 14.6493 12.1178 15.2757 12.119C17.8802 12.119 20 14.2784 20 16.9257C19.9987 17.1296 19.9169 17.3247 19.7724 17.4686C19.6279 17.6125 19.4324 17.6934 19.2286 17.6939ZM13.9537 15.0004H12.6333C12.5029 15.0003 12.3747 14.967 12.2607 14.9035C12.1468 14.8401 12.0509 14.7486 11.9822 14.6377C11.9136 14.5269 11.874 14.4005 11.8671 14.2703C11.8601 14.1401 11.8861 14.0102 11.9426 13.8927L12.602 12.5443C12.6641 12.4137 12.762 12.3034 12.8842 12.2262C13.0065 12.149 13.1481 12.108 13.2927 12.108C13.4373 12.108 13.5789 12.149 13.7011 12.2262C13.8234 12.3034 13.9212 12.4137 13.9834 12.5443L14.6427 13.8927C14.7005 14.0098 14.7274 14.1397 14.7208 14.2701C14.7141 14.4006 14.6742 14.5271 14.6048 14.6377C14.5366 14.749 14.4408 14.8409 14.3268 14.9044C14.2127 14.9679 14.0842 15.001 13.9537 15.0004ZM17.2389 21.9434H17.2126C17.0819 21.9398 16.9544 21.9027 16.8421 21.8358C16.7299 21.7688 16.6366 21.6742 16.5713 21.561L15.912 20.4203C15.8472 20.3073 15.8122 20.1797 15.8102 20.0494C15.8082 19.9191 15.8393 19.7905 15.9006 19.6755C15.9618 19.5606 16.0513 19.463 16.1605 19.392C16.2698 19.3211 16.3952 19.279 16.5252 19.2697L18.0203 19.1659C18.3137 19.1477 18.5906 19.2978 18.739 19.5483C18.8108 19.673 18.8464 19.8153 18.8418 19.9592C18.8371 20.1031 18.7924 20.2428 18.7126 20.3626L17.8769 21.6055C17.8064 21.7098 17.7113 21.7951 17.6001 21.8541C17.4888 21.913 17.3648 21.9437 17.2389 21.9434Z" fill="#B0BEC5"/>
</svg>
