<svg width="17" height="17" viewBox="0 0 17 17" fill="none" xmlns="http://www.w3.org/2000/svg">
<path d="M8.5 16C12.6421 16 16 12.6421 16 8.5C16 4.35786 12.6421 1 8.5 1C4.35786 1 1 4.35786 1 8.5C1 12.6421 4.35786 16 8.5 16Z" stroke="#222222" stroke-linecap="round"/>
<path d="M5.50684 12.1495C5.83989 11.8611 6.29547 11.6397 6.81165 11.4907C7.33094 11.3408 7.9127 11.2637 8.50007 11.2637C9.08744 11.2637 9.6692 11.3408 10.1885 11.4907C10.7047 11.6397 11.1603 11.8611 11.4933 12.1495" stroke="#222222" stroke-linecap="round"/>
<path d="M12.447 5.3418L10.0786 6.92074" stroke="#222222" stroke-linecap="round"/>
<path d="M4.55273 5.3418L6.92116 6.92074" stroke="#222222" stroke-linecap="round"/>
<path d="M5.34221 7.71176C5.77822 7.71176 6.13168 7.3583 6.13168 6.92229C6.13168 6.48627 5.77822 6.13281 5.34221 6.13281C4.90619 6.13281 4.55273 6.48627 4.55273 6.92229C4.55273 7.3583 4.90619 7.71176 5.34221 7.71176Z" fill="#222222"/>
<path d="M11.6581 7.71176C12.0941 7.71176 12.4476 7.3583 12.4476 6.92229C12.4476 6.48627 12.0941 6.13281 11.6581 6.13281C11.2221 6.13281 10.8687 6.48627 10.8687 6.92229C10.8687 7.3583 11.2221 7.71176 11.6581 7.71176Z" fill="#222222"/>
</svg>
