<svg width="65" height="65" viewBox="0 0 65 65" fill="none" xmlns="http://www.w3.org/2000/svg">
<path d="M32.5 64C49.897 64 64 49.897 64 32.5C64 15.103 49.897 1 32.5 1C15.103 1 1 15.103 1 32.5C1 49.897 15.103 64 32.5 64Z" stroke="#1C274C" stroke-linecap="round"/>
<path d="M19.9287 47.8277C21.3275 46.6165 23.241 45.6867 25.4089 45.061C27.5899 44.4314 30.0333 44.1074 32.5003 44.1074C34.9672 44.1074 37.4106 44.4314 39.5918 45.061C41.7596 45.6867 43.6732 46.6165 45.0718 47.8277" stroke="#1C274C" stroke-linecap="round"/>
<path d="M49.0777 19.2363L39.1304 25.8679" stroke="#1C274C" stroke-linecap="round"/>
<path d="M15.9214 19.2363L25.8688 25.8679" stroke="#1C274C" stroke-linecap="round"/>
<path d="M19.2372 29.1902C21.0684 29.1902 22.553 27.7056 22.553 25.8744C22.553 24.0431 21.0684 22.5586 19.2372 22.5586C17.4059 22.5586 15.9214 24.0431 15.9214 25.8744C15.9214 27.7056 17.4059 29.1902 19.2372 29.1902Z" fill="#1C274C"/>
<path d="M45.764 29.1902C47.5953 29.1902 49.0798 27.7056 49.0798 25.8744C49.0798 24.0431 47.5953 22.5586 45.764 22.5586C43.9328 22.5586 42.4482 24.0431 42.4482 25.8744C42.4482 27.7056 43.9328 29.1902 45.764 29.1902Z" fill="#1C274C"/>
</svg>
