<svg width="14" height="16" viewBox="0 0 14 16" fill="none" xmlns="http://www.w3.org/2000/svg">
<path d="M1 6.6C1 3.96013 1 2.6402 1.78105 1.8201C2.5621 1 3.81917 1 6.33333 1H7.66667C10.1808 1 11.4379 1 12.2189 1.8201C13 2.6402 13 3.96013 13 6.6V9.4C13 12.0398 13 13.3598 12.2189 14.1799C11.4379 15 10.1808 15 7.66667 15H6.33333C3.81917 15 2.5621 15 1.78105 14.1799C1 13.3598 1 12.0398 1 9.4V6.6Z" stroke="#1C274C"/>
<path d="M4 8H10" stroke="#1C274C" stroke-linecap="round"/>
<path d="M4 5H10" stroke="#1C274C" stroke-linecap="round"/>
<path d="M4 11H8" stroke="#1C274C" stroke-linecap="round"/>
</svg>
